<svg version="1.2" xmlns="http://www.w3.org/2000/svg" viewBox="0 0 518 138" width="1500" height="600">
	<title>eucatex-logo-svg</title>
	<style>
		.s0 { fill: #3c3c3b } 
		.s1 { fill: #0091b3 } 
		.s2 { fill: #e2e71f } 
	</style>
	<g id="layer1">
		<g id="Pasta 2">
			<path id="path4670" fill-rule="evenodd" class="s0" d="m358.7 100c-3.1 9.4-11 18.5-28.4 18.5-21.6 0-28.8-15.1-28.8-28 0-14.7 9.1-28 28.8-28 13.6 0 29.7 5.9 29.7 29.8h-50.9c0 11 7.8 19.9 21.2 19.9 12.5 0 18.2-4.2 20.9-12.2zm-6.2-13.4c-2.2-13-11.7-17.8-21.7-17.8-9.7 0-20 4.9-21.8 17.8z"/>
			<path id="path4666" fill-rule="evenodd" class="s0" d="m79.4 100c-3 9.4-10.9 18.5-28.4 18.5-21.6 0-28.7-15.1-28.7-28 0-14.7 9-28 28.7-28 13.6 0 29.7 5.9 29.7 29.8h-50.9c0 11 7.8 19.9 21.2 19.9 12.6 0 18.3-4.2 20.9-12.2zm-6.2-13.4c-2.1-13-11.7-17.8-21.7-17.8-9.6 0-20 4.9-21.7 17.8zm59.4 19.9h-0.2c-2.2 5.6-10.1 12-21.8 12-17.5 0-22.8-9.1-22.8-21.7v-32.7h7.5v34c0 10.5 6.4 14.1 15.9 14.1 14.8 0 21.4-7.5 21.4-19.5v-28.6h7.6v52.8h-7.6zm70.8-8.5c-1.4 6.9-7.5 20.4-26.7 20.4-19.1 0-29.7-11.4-29.7-28 0-15.8 9.7-28 29.7-28 18.1 0 25.1 11.3 26.3 18.9h-7.5c-2.4-9-9.5-12.6-18.8-12.6-15.1 0-22.2 9.6-22.2 21.7 0 13.1 7.9 21.8 22.2 21.8 11.1 0 17.2-6 19.2-14.2zm5.9-17.7c1.1-11.1 7.1-17.9 25.1-17.9 17.7 0 24.2 5.5 24.2 15.7v27.6c0 4.3 1.2 5.8 4.1 5.8 1.4 0 2.7-0.1 4-0.2v5.1c-1.5 0.3-3.9 0.8-6.3 0.8-7.6 0-8-5.1-8.1-9.3h-0.2c-2.4 3.4-7.4 10.5-24.7 10.5-9 0-20.5-3.9-20.5-15.8 0-14.3 14.7-15.9 26.3-16.5 16.4-0.9 18.5-1.8 18.5-7 0-7.6-5.1-10.4-17.5-10.4-11.9 0-17.5 3.2-18 11.6zm42.4 8.1c-3.4 2.1-8.5 2.6-23.5 4-8.7 0.8-13.8 3.4-13.8 9.7 0 8.2 7.1 10.7 15.3 10.7 10.1 0 22-5.5 22-16.4zm23-24.3v-16.7h7.5v16.7h14.9v5.7h-14.9v34.9c0 4.5 1.4 6.7 7.5 6.7 3.7 0 6-0.3 7.4-0.6v6.2c-2.8 0.5-5.8 0.7-8.2 0.7-11.7 0-14.2-4.6-14.2-13.1v-34.8h-11.5v-5.7z"/>
			<path id="path4686" class="s1" d="m444.4 41.2c-1.4-3.6-3.4-6.9-5.8-9.9-1.3-1.6-2.6-3.1-4.2-4.5l0.6 0.3c4.9 2.6 9 6 12.4 10 0.9-1.1 1.8-2.1 2.7-3 3.4-3.4 7.3-6.1 11.4-8.1-4.3-5.1-10-9.2-16.8-11.9-7.1-2.7-14.6-3.2-21.7-2-0.2 0.4-0.3 0.8-0.5 1.2-6.7 17.9-0.1 37.5 14.8 47.9 0.7-7.2 3.1-14.1 7.1-20z"/>
			<path id="path4690" class="s2" d="m501.7 30.4c-6.1-3.7-13.3-5.7-21.1-5.7-21.6 0-39.2 16.7-40.8 37.8-0.1 1.5 0.9 1.8 1.3 1.2 9.3-12.8 21.3-19.3 32.7-21.7-11.2 4.5-22.6 14.3-30.3 24.6-3.7 5.1-8.2 11.9-8.4 12.3-0.4 0.8 0.1 1.6 0.1 1.6l2 1c0 0 0.6 0.7 1.3-0.2 0.2-0.4 6.2-10.5 6.9-11.8 4.8 1.9 10 3 15.4 3 22.5 0 40.8-18.3 40.8-40.8 0.1-0.4 0.1-0.8 0.1-1.3z"/>
			<path id="path4674" class="s0" d="m358.8 116.9h9.8l19.5-21.9 19.6 21.9h9.9l-24.7-27.4 22.8-25.4h-9.8l-17.8 20.1-17.9-20.1h-9.7l22.5 25.4z"/>
		</g>
	</g>
</svg>